<svg id="SvgjsSvg1001" width="288" height="288" xmlns="http://www.w3.org/2000/svg" version="1.1" xmlns:xlink="http://www.w3.org/1999/xlink" xmlns:svgjs="http://svgjs.com/svgjs"><defs id="SvgjsDefs1002"></defs><g id="SvgjsG1008"><svg xmlns="http://www.w3.org/2000/svg" enable-background="new 0 0 56 56" viewBox="0 0 56 56" width="288" height="288"><path d="M28,0C12.561,0,0,12.561,0,28s12.561,28,28,28s28-12.561,28-28S43.439,0,28,0z M28,54C13.663,54,2,42.336,2,28
		S13.663,2,28,2s26,11.664,26,26S42.337,54,28,54z" fill="#ffffff" class="color000 svgShape"></path><path d="M40 16H16c-.553 0-1 .448-1 1s.447 1 1 1h24c.553 0 1-.448 1-1S40.553 16 40 16zM40 27H16c-.553 0-1 .448-1 1s.447 1 1 1h24c.553 0 1-.448 1-1S40.553 27 40 27zM40 38H16c-.553 0-1 .448-1 1s.447 1 1 1h24c.553 0 1-.448 1-1S40.553 38 40 38z" fill="#ffffff" class="color000 svgShape"></path></svg></g></svg>